<?xml version="1.0" encoding="UTF-8" standalone="no"?>
<!DOCTYPE svg PUBLIC "-//W3C//DTD SVG 1.1//EN"
 "http://www.w3.org/Graphics/SVG/1.1/DTD/svg11.dtd">
<!-- Generated by graphviz version 2.38.0 (20140413.2041)
 -->
<!-- Title: %3 Pages: 1 -->
<svg width="451pt" height="2348pt"
 viewBox="0.00 0.00 450.55 2348.00" xmlns="http://www.w3.org/2000/svg" xmlns:xlink="http://www.w3.org/1999/xlink">
<g id="graph0" class="graph" transform="scale(1 1) rotate(0) translate(4 2344)">
<title>%3</title>
<polygon fill="white" stroke="none" points="-4,4 -4,-2344 446.546,-2344 446.546,4 -4,4"/>
<!-- 140466827113296 -->
<g id="node1" class="node"><title>140466827113296</title>
<ellipse fill="lightblue" stroke="black" cx="310" cy="-1458" rx="38.9931" ry="18"/>
<text text-anchor="middle" x="310" y="-1454.3" font-family="Times,serif" font-size="14.00">[10, 50]</text>
</g>
<!-- 140466826996816 -->
<g id="node48" class="node"><title>140466826996816</title>
<polygon fill="orange" stroke="black" points="358,-1404 264,-1404 264,-1368 358,-1368 358,-1404"/>
<text text-anchor="middle" x="311" y="-1382.3" font-family="Times,serif" font-size="14.00">BatchNorm1d</text>
</g>
<!-- 140466827113296&#45;&gt;140466826996816 -->
<g id="edge28" class="edge"><title>140466827113296&#45;&gt;140466826996816</title>
<path fill="none" stroke="black" d="M310.247,-1439.7C310.357,-1431.98 310.49,-1422.71 310.613,-1414.11"/>
<polygon fill="black" stroke="black" points="314.112,-1414.15 310.756,-1404.1 307.113,-1414.05 314.112,-1414.15"/>
</g>
<!-- 140466826910704 -->
<g id="node2" class="node"><title>140466826910704</title>
<ellipse fill="lightblue" stroke="black" cx="103" cy="-2322" rx="48.1917" ry="18"/>
<text text-anchor="middle" x="103" y="-2318.3" font-family="Times,serif" font-size="14.00">[10, 1995]</text>
</g>
<!-- 140465669089864 -->
<g id="node39" class="node"><title>140465669089864</title>
<polygon fill="orange" stroke="black" points="248,-2268 194,-2268 194,-2232 248,-2232 248,-2268"/>
<text text-anchor="middle" x="221" y="-2246.3" font-family="Times,serif" font-size="14.00">Linear</text>
</g>
<!-- 140466826910704&#45;&gt;140465669089864 -->
<g id="edge10" class="edge"><title>140466826910704&#45;&gt;140465669089864</title>
<path fill="none" stroke="black" d="M127.45,-2306.5C144.041,-2296.65 166.261,-2283.47 184.883,-2272.43"/>
<polygon fill="black" stroke="black" points="186.88,-2275.31 193.694,-2267.2 183.308,-2269.29 186.88,-2275.31"/>
</g>
<!-- 140466827113488 -->
<g id="node3" class="node"><title>140466827113488</title>
<ellipse fill="lightblue" stroke="black" cx="259" cy="-594" rx="38.9931" ry="18"/>
<text text-anchor="middle" x="259" y="-590.3" font-family="Times,serif" font-size="14.00">[10, 50]</text>
</g>
<!-- 140466818237192 -->
<g id="node42" class="node"><title>140466818237192</title>
<polygon fill="orange" stroke="black" points="290,-540 228,-540 228,-504 290,-504 290,-540"/>
<text text-anchor="middle" x="259" y="-518.3" font-family="Times,serif" font-size="14.00">Dropout</text>
</g>
<!-- 140466827113488&#45;&gt;140466818237192 -->
<g id="edge17" class="edge"><title>140466827113488&#45;&gt;140466818237192</title>
<path fill="none" stroke="black" d="M259,-575.697C259,-567.983 259,-558.712 259,-550.112"/>
<polygon fill="black" stroke="black" points="262.5,-550.104 259,-540.104 255.5,-550.104 262.5,-550.104"/>
</g>
<!-- 140466827113680 -->
<g id="node4" class="node"><title>140466827113680</title>
<ellipse fill="lightblue" stroke="black" cx="103" cy="-18" rx="48.1917" ry="18"/>
<text text-anchor="middle" x="103" y="-14.3" font-family="Times,serif" font-size="14.00">[10, 1995]</text>
</g>
<!-- 140466827114928 -->
<g id="node5" class="node"><title>140466827114928</title>
<ellipse fill="lightblue" stroke="black" cx="259" cy="-450" rx="38.9931" ry="18"/>
<text text-anchor="middle" x="259" y="-446.3" font-family="Times,serif" font-size="14.00">[10, 50]</text>
</g>
<!-- 140466818237424 -->
<g id="node40" class="node"><title>140466818237424</title>
<polygon fill="orange" stroke="black" points="181,-396 127,-396 127,-360 181,-360 181,-396"/>
<text text-anchor="middle" x="154" y="-374.3" font-family="Times,serif" font-size="14.00">Linear</text>
</g>
<!-- 140466827114928&#45;&gt;140466818237424 -->
<g id="edge13" class="edge"><title>140466827114928&#45;&gt;140466818237424</title>
<path fill="none" stroke="black" d="M237.752,-434.834C223.595,-425.396 204.67,-412.78 188.393,-401.929"/>
<polygon fill="black" stroke="black" points="189.931,-398.748 179.669,-396.113 186.048,-404.572 189.931,-398.748"/>
</g>
<!-- 140466826908688 -->
<g id="node6" class="node"><title>140466826908688</title>
<ellipse fill="red" stroke="black" cx="130" cy="-2034" rx="29.795" ry="18"/>
<text text-anchor="middle" x="130" y="-2030.3" font-family="Times,serif" font-size="14.00">[100]</text>
</g>
<!-- 140465669089168 -->
<g id="node43" class="node"><title>140465669089168</title>
<polygon fill="orange" stroke="black" points="248,-1980 194,-1980 194,-1944 248,-1944 248,-1980"/>
<text text-anchor="middle" x="221" y="-1958.3" font-family="Times,serif" font-size="14.00">Linear</text>
</g>
<!-- 140466826908688&#45;&gt;140465669089168 -->
<g id="edge20" class="edge"><title>140466826908688&#45;&gt;140465669089168</title>
<path fill="none" stroke="black" d="M147.979,-2019.17C160.189,-2009.78 176.635,-1997.13 190.828,-1986.21"/>
<polygon fill="black" stroke="black" points="193.083,-1988.89 198.875,-1980.02 188.815,-1983.34 193.083,-1988.89"/>
</g>
<!-- 140466827113872 -->
<g id="node7" class="node"><title>140466827113872</title>
<ellipse fill="lightblue" stroke="black" cx="259" cy="-738" rx="38.9931" ry="18"/>
<text text-anchor="middle" x="259" y="-734.3" font-family="Times,serif" font-size="14.00">[10, 50]</text>
</g>
<!-- 140466818236960 -->
<g id="node45" class="node"><title>140466818236960</title>
<polygon fill="orange" stroke="black" points="290.5,-684 227.5,-684 227.5,-648 290.5,-648 290.5,-684"/>
<text text-anchor="middle" x="259" y="-662.3" font-family="Times,serif" font-size="14.00">Softmax</text>
</g>
<!-- 140466827113872&#45;&gt;140466818236960 -->
<g id="edge24" class="edge"><title>140466827113872&#45;&gt;140466818236960</title>
<path fill="none" stroke="black" d="M259,-719.697C259,-711.983 259,-702.712 259,-694.112"/>
<polygon fill="black" stroke="black" points="262.5,-694.104 259,-684.104 255.5,-694.104 262.5,-694.104"/>
</g>
<!-- 140466827114160 -->
<g id="node8" class="node"><title>140466827114160</title>
<ellipse fill="lightblue" stroke="black" cx="154" cy="-306" rx="48.1917" ry="18"/>
<text text-anchor="middle" x="154" y="-302.3" font-family="Times,serif" font-size="14.00">[10, 1995]</text>
</g>
<!-- 140466826997008 -->
<g id="node36" class="node"><title>140466826997008</title>
<polygon fill="orange" stroke="black" points="150,-252 56,-252 56,-216 150,-216 150,-252"/>
<text text-anchor="middle" x="103" y="-230.3" font-family="Times,serif" font-size="14.00">BatchNorm1d</text>
</g>
<!-- 140466827114160&#45;&gt;140466826997008 -->
<g id="edge3" class="edge"><title>140466827114160&#45;&gt;140466826997008</title>
<path fill="none" stroke="black" d="M141.914,-288.411C135.87,-280.115 128.42,-269.891 121.663,-260.615"/>
<polygon fill="black" stroke="black" points="124.429,-258.468 115.711,-252.447 118.771,-262.59 124.429,-258.468"/>
</g>
<!-- 140466827114064 -->
<g id="node9" class="node"><title>140466827114064</title>
<ellipse fill="lightblue" stroke="black" cx="294" cy="-1026" rx="38.9931" ry="18"/>
<text text-anchor="middle" x="294" y="-1022.3" font-family="Times,serif" font-size="14.00">[10, 50]</text>
</g>
<!-- 140466818236496 -->
<g id="node47" class="node"><title>140466818236496</title>
<polygon fill="orange" stroke="black" points="321,-972 267,-972 267,-936 321,-936 321,-972"/>
<text text-anchor="middle" x="294" y="-950.3" font-family="Times,serif" font-size="14.00">Mul</text>
</g>
<!-- 140466827114064&#45;&gt;140466818236496 -->
<g id="edge26" class="edge"><title>140466827114064&#45;&gt;140466818236496</title>
<path fill="none" stroke="black" d="M294,-1007.7C294,-999.983 294,-990.712 294,-982.112"/>
<polygon fill="black" stroke="black" points="297.5,-982.104 294,-972.104 290.5,-982.104 297.5,-982.104"/>
</g>
<!-- 140466827114256 -->
<g id="node10" class="node"><title>140466827114256</title>
<ellipse fill="lightblue" stroke="black" cx="293" cy="-882" rx="38.9931" ry="18"/>
<text text-anchor="middle" x="293" y="-878.3" font-family="Times,serif" font-size="14.00">[10, 50]</text>
</g>
<!-- 140466818236728 -->
<g id="node51" class="node"><title>140466818236728</title>
<polygon fill="orange" stroke="black" points="286,-828 232,-828 232,-792 286,-792 286,-828"/>
<text text-anchor="middle" x="259" y="-806.3" font-family="Times,serif" font-size="14.00">Add</text>
</g>
<!-- 140466827114256&#45;&gt;140466818236728 -->
<g id="edge33" class="edge"><title>140466827114256&#45;&gt;140466818236728</title>
<path fill="none" stroke="black" d="M284.77,-864.055C280.902,-856.091 276.2,-846.411 271.876,-837.51"/>
<polygon fill="black" stroke="black" points="274.908,-835.741 267.391,-828.275 268.612,-838.8 274.908,-835.741"/>
</g>
<!-- 140466827113392 -->
<g id="node11" class="node"><title>140466827113392</title>
<ellipse fill="lightblue" stroke="black" cx="221" cy="-2034" rx="43.5923" ry="18"/>
<text text-anchor="middle" x="221" y="-2030.3" font-family="Times,serif" font-size="14.00">[10, 100]</text>
</g>
<!-- 140466827113392&#45;&gt;140465669089168 -->
<g id="edge18" class="edge"><title>140466827113392&#45;&gt;140465669089168</title>
<path fill="none" stroke="black" d="M221,-2015.7C221,-2007.98 221,-1998.71 221,-1990.11"/>
<polygon fill="black" stroke="black" points="224.5,-1990.1 221,-1980.1 217.5,-1990.1 224.5,-1990.1"/>
</g>
<!-- 140466827114640 -->
<g id="node12" class="node"><title>140466827114640</title>
<ellipse fill="lightblue" stroke="black" cx="309" cy="-1314" rx="38.9931" ry="18"/>
<text text-anchor="middle" x="309" y="-1310.3" font-family="Times,serif" font-size="14.00">[10, 50]</text>
</g>
<!-- 140465669091024 -->
<g id="node49" class="node"><title>140465669091024</title>
<polygon fill="orange" stroke="black" points="329,-1260 275,-1260 275,-1224 329,-1224 329,-1260"/>
<text text-anchor="middle" x="302" y="-1238.3" font-family="Times,serif" font-size="14.00">Exp</text>
</g>
<!-- 140466827114640&#45;&gt;140465669091024 -->
<g id="edge30" class="edge"><title>140466827114640&#45;&gt;140465669091024</title>
<path fill="none" stroke="black" d="M307.27,-1295.7C306.498,-1287.98 305.571,-1278.71 304.711,-1270.11"/>
<polygon fill="black" stroke="black" points="308.188,-1269.71 303.71,-1260.1 301.223,-1270.4 308.188,-1269.71"/>
</g>
<!-- 140466826909744 -->
<g id="node13" class="node"><title>140466826909744</title>
<ellipse fill="red" stroke="black" cx="221" cy="-2322" rx="51.9908" ry="18"/>
<text text-anchor="middle" x="221" y="-2318.3" font-family="Times,serif" font-size="14.00">[100, 1995]</text>
</g>
<!-- 140466826909744&#45;&gt;140465669089864 -->
<g id="edge11" class="edge"><title>140466826909744&#45;&gt;140465669089864</title>
<path fill="none" stroke="black" d="M221,-2303.7C221,-2295.98 221,-2286.71 221,-2278.11"/>
<polygon fill="black" stroke="black" points="224.5,-2278.1 221,-2268.1 217.5,-2278.1 224.5,-2278.1"/>
</g>
<!-- 140466827114352 -->
<g id="node14" class="node"><title>140466827114352</title>
<ellipse fill="lightblue" stroke="black" cx="390" cy="-1026" rx="38.9931" ry="18"/>
<text text-anchor="middle" x="390" y="-1022.3" font-family="Times,serif" font-size="14.00">[10, 50]</text>
</g>
<!-- 140466827114352&#45;&gt;140466818236496 -->
<g id="edge27" class="edge"><title>140466827114352&#45;&gt;140466818236496</title>
<path fill="none" stroke="black" d="M370.109,-1010.5C357.346,-1001.19 340.489,-988.898 325.885,-978.249"/>
<polygon fill="black" stroke="black" points="327.736,-975.267 317.594,-972.204 323.612,-980.924 327.736,-975.267"/>
</g>
<!-- 140466826910224 -->
<g id="node15" class="node"><title>140466826910224</title>
<ellipse fill="red" stroke="black" cx="310" cy="-1602" rx="27" ry="18"/>
<text text-anchor="middle" x="310" y="-1598.3" font-family="Times,serif" font-size="14.00">[50]</text>
</g>
<!-- 140465669090792 -->
<g id="node38" class="node"><title>140465669090792</title>
<polygon fill="orange" stroke="black" points="337,-1548 283,-1548 283,-1512 337,-1512 337,-1548"/>
<text text-anchor="middle" x="310" y="-1526.3" font-family="Times,serif" font-size="14.00">Linear</text>
</g>
<!-- 140466826910224&#45;&gt;140465669090792 -->
<g id="edge9" class="edge"><title>140466826910224&#45;&gt;140465669090792</title>
<path fill="none" stroke="black" d="M310,-1583.7C310,-1575.98 310,-1566.71 310,-1558.11"/>
<polygon fill="black" stroke="black" points="313.5,-1558.1 310,-1548.1 306.5,-1558.1 313.5,-1558.1"/>
</g>
<!-- 140466826910416 -->
<g id="node16" class="node"><title>140466826910416</title>
<ellipse fill="red" stroke="black" cx="394" cy="-1458" rx="27" ry="18"/>
<text text-anchor="middle" x="394" y="-1454.3" font-family="Times,serif" font-size="14.00">[50]</text>
</g>
<!-- 140466826910416&#45;&gt;140466826996816 -->
<g id="edge29" class="edge"><title>140466826910416&#45;&gt;140466826996816</title>
<path fill="none" stroke="black" d="M377.602,-1443.17C366.569,-1433.87 351.745,-1421.36 338.883,-1410.52"/>
<polygon fill="black" stroke="black" points="341.081,-1407.79 331.18,-1404.02 336.568,-1413.14 341.081,-1407.79"/>
</g>
<!-- 140466827113200 -->
<g id="node17" class="node"><title>140466827113200</title>
<ellipse fill="lightblue" stroke="black" cx="221" cy="-1746" rx="43.5923" ry="18"/>
<text text-anchor="middle" x="221" y="-1742.3" font-family="Times,serif" font-size="14.00">[10, 100]</text>
</g>
<!-- 140465669089400 -->
<g id="node46" class="node"><title>140465669089400</title>
<polygon fill="orange" stroke="black" points="252,-1692 190,-1692 190,-1656 252,-1656 252,-1692"/>
<text text-anchor="middle" x="221" y="-1670.3" font-family="Times,serif" font-size="14.00">Dropout</text>
</g>
<!-- 140466827113200&#45;&gt;140465669089400 -->
<g id="edge25" class="edge"><title>140466827113200&#45;&gt;140465669089400</title>
<path fill="none" stroke="black" d="M221,-1727.7C221,-1719.98 221,-1710.71 221,-1702.11"/>
<polygon fill="black" stroke="black" points="224.5,-1702.1 221,-1692.1 217.5,-1702.1 224.5,-1702.1"/>
</g>
<!-- 140466826910608 -->
<g id="node18" class="node"><title>140466826910608</title>
<ellipse fill="red" stroke="black" cx="53" cy="-450" rx="34.394" ry="18"/>
<text text-anchor="middle" x="53" y="-446.3" font-family="Times,serif" font-size="14.00">[1995]</text>
</g>
<!-- 140466826910608&#45;&gt;140466818237424 -->
<g id="edge15" class="edge"><title>140466826910608&#45;&gt;140466818237424</title>
<path fill="none" stroke="black" d="M72.9543,-435.17C86.6332,-425.69 105.101,-412.89 120.953,-401.904"/>
<polygon fill="black" stroke="black" points="123.219,-404.592 129.444,-396.019 119.231,-398.839 123.219,-404.592"/>
</g>
<!-- 140466826908592 -->
<g id="node19" class="node"><title>140466826908592</title>
<ellipse fill="red" stroke="black" cx="27" cy="-1602" rx="27" ry="18"/>
<text text-anchor="middle" x="27" y="-1598.3" font-family="Times,serif" font-size="14.00">[50]</text>
</g>
<!-- 140465669090328 -->
<g id="node44" class="node"><title>140465669090328</title>
<polygon fill="orange" stroke="black" points="143,-1548 89,-1548 89,-1512 143,-1512 143,-1548"/>
<text text-anchor="middle" x="116" y="-1526.3" font-family="Times,serif" font-size="14.00">Linear</text>
</g>
<!-- 140466826908592&#45;&gt;140465669090328 -->
<g id="edge23" class="edge"><title>140466826908592&#45;&gt;140465669090328</title>
<path fill="none" stroke="black" d="M43.7402,-1587.83C55.6945,-1578.43 72.0988,-1565.53 86.2562,-1554.39"/>
<polygon fill="black" stroke="black" points="88.5851,-1557.02 94.2815,-1548.08 84.2576,-1551.51 88.5851,-1557.02"/>
</g>
<!-- 140466826910800 -->
<g id="node20" class="node"><title>140466826910800</title>
<ellipse fill="red" stroke="black" cx="53" cy="-306" rx="34.394" ry="18"/>
<text text-anchor="middle" x="53" y="-302.3" font-family="Times,serif" font-size="14.00">[1995]</text>
</g>
<!-- 140466826910800&#45;&gt;140466826997008 -->
<g id="edge4" class="edge"><title>140466826910800&#45;&gt;140466826997008</title>
<path fill="none" stroke="black" d="M64.5967,-288.765C70.6044,-280.354 78.0783,-269.89 84.8317,-260.436"/>
<polygon fill="black" stroke="black" points="87.8043,-262.296 90.7686,-252.124 82.1081,-258.227 87.8043,-262.296"/>
</g>
<!-- 140466827113584 -->
<g id="node21" class="node"><title>140466827113584</title>
<ellipse fill="lightblue" stroke="black" cx="216" cy="-1242" rx="38.9931" ry="18"/>
<text text-anchor="middle" x="216" y="-1238.3" font-family="Times,serif" font-size="14.00">[10, 50]</text>
</g>
<!-- 140466827113584&#45;&gt;140466818236728 -->
<g id="edge32" class="edge"><title>140466827113584&#45;&gt;140466818236728</title>
<path fill="none" stroke="black" d="M217.778,-1223.97C220.401,-1197.34 225,-1144.21 225,-1099 225,-1099 225,-1099 225,-953 225,-911.91 238.631,-865.925 248.631,-837.717"/>
<polygon fill="black" stroke="black" points="251.975,-838.765 252.12,-828.171 245.4,-836.362 251.975,-838.765"/>
</g>
<!-- 140466827113776 -->
<g id="node22" class="node"><title>140466827113776</title>
<ellipse fill="lightblue" stroke="black" cx="301" cy="-1170" rx="38.9931" ry="18"/>
<text text-anchor="middle" x="301" y="-1166.3" font-family="Times,serif" font-size="14.00">[10, 50]</text>
</g>
<!-- 140465669090560 -->
<g id="node41" class="node"><title>140465669090560</title>
<polygon fill="orange" stroke="black" points="323,-1116 269,-1116 269,-1080 323,-1080 323,-1116"/>
<text text-anchor="middle" x="296" y="-1094.3" font-family="Times,serif" font-size="14.00">Sqrt</text>
</g>
<!-- 140466827113776&#45;&gt;140465669090560 -->
<g id="edge16" class="edge"><title>140466827113776&#45;&gt;140465669090560</title>
<path fill="none" stroke="black" d="M299.764,-1151.7C299.213,-1143.98 298.551,-1134.71 297.937,-1126.11"/>
<polygon fill="black" stroke="black" points="301.425,-1125.83 297.222,-1116.1 294.443,-1126.33 301.425,-1125.83"/>
</g>
<!-- 140466826908496 -->
<g id="node23" class="node"><title>140466826908496</title>
<ellipse fill="red" stroke="black" cx="116" cy="-1602" rx="43.5923" ry="18"/>
<text text-anchor="middle" x="116" y="-1598.3" font-family="Times,serif" font-size="14.00">[50, 100]</text>
</g>
<!-- 140466826908496&#45;&gt;140465669090328 -->
<g id="edge22" class="edge"><title>140466826908496&#45;&gt;140465669090328</title>
<path fill="none" stroke="black" d="M116,-1583.7C116,-1575.98 116,-1566.71 116,-1558.11"/>
<polygon fill="black" stroke="black" points="119.5,-1558.1 116,-1548.1 112.5,-1558.1 119.5,-1558.1"/>
</g>
<!-- 140466827113968 -->
<g id="node24" class="node"><title>140466827113968</title>
<ellipse fill="lightblue" stroke="black" cx="221" cy="-1890" rx="43.5923" ry="18"/>
<text text-anchor="middle" x="221" y="-1886.3" font-family="Times,serif" font-size="14.00">[10, 100]</text>
</g>
<!-- 140465669090096 -->
<g id="node35" class="node"><title>140465669090096</title>
<polygon fill="orange" stroke="black" points="252,-1836 190,-1836 190,-1800 252,-1800 252,-1836"/>
<text text-anchor="middle" x="221" y="-1814.3" font-family="Times,serif" font-size="14.00">Softplus</text>
</g>
<!-- 140466827113968&#45;&gt;140465669090096 -->
<g id="edge2" class="edge"><title>140466827113968&#45;&gt;140465669090096</title>
<path fill="none" stroke="black" d="M221,-1871.7C221,-1863.98 221,-1854.71 221,-1846.11"/>
<polygon fill="black" stroke="black" points="224.5,-1846.1 221,-1836.1 217.5,-1846.1 224.5,-1846.1"/>
</g>
<!-- 140466827114736 -->
<g id="node25" class="node"><title>140466827114736</title>
<ellipse fill="lightblue" stroke="black" cx="116" cy="-1458" rx="38.9931" ry="18"/>
<text text-anchor="middle" x="116" y="-1454.3" font-family="Times,serif" font-size="14.00">[10, 50]</text>
</g>
<!-- 140466826996688 -->
<g id="node37" class="node"><title>140466826996688</title>
<polygon fill="orange" stroke="black" points="246,-1404 152,-1404 152,-1368 246,-1368 246,-1404"/>
<text text-anchor="middle" x="199" y="-1382.3" font-family="Times,serif" font-size="14.00">BatchNorm1d</text>
</g>
<!-- 140466827114736&#45;&gt;140466826996688 -->
<g id="edge5" class="edge"><title>140466827114736&#45;&gt;140466826996688</title>
<path fill="none" stroke="black" d="M134.01,-1441.81C144.804,-1432.71 158.76,-1420.94 170.971,-1410.64"/>
<polygon fill="black" stroke="black" points="173.305,-1413.25 178.693,-1404.13 168.792,-1407.9 173.305,-1413.25"/>
</g>
<!-- 140466827115024 -->
<g id="node26" class="node"><title>140466827115024</title>
<ellipse fill="lightblue" stroke="black" cx="103" cy="-162" rx="48.1917" ry="18"/>
<text text-anchor="middle" x="103" y="-158.3" font-family="Times,serif" font-size="14.00">[10, 1995]</text>
</g>
<!-- 140466818237656 -->
<g id="node50" class="node"><title>140466818237656</title>
<polygon fill="orange" stroke="black" points="134.5,-108 71.5,-108 71.5,-72 134.5,-72 134.5,-108"/>
<text text-anchor="middle" x="103" y="-86.3" font-family="Times,serif" font-size="14.00">Softmax</text>
</g>
<!-- 140466827115024&#45;&gt;140466818237656 -->
<g id="edge31" class="edge"><title>140466827115024&#45;&gt;140466818237656</title>
<path fill="none" stroke="black" d="M103,-143.697C103,-135.983 103,-126.712 103,-118.112"/>
<polygon fill="black" stroke="black" points="106.5,-118.104 103,-108.104 99.5001,-118.104 106.5,-118.104"/>
</g>
<!-- 140466826909648 -->
<g id="node27" class="node"><title>140466826909648</title>
<ellipse fill="red" stroke="black" cx="331" cy="-2034" rx="48.1917" ry="18"/>
<text text-anchor="middle" x="331" y="-2030.3" font-family="Times,serif" font-size="14.00">[100, 100]</text>
</g>
<!-- 140466826909648&#45;&gt;140465669089168 -->
<g id="edge19" class="edge"><title>140466826909648&#45;&gt;140465669089168</title>
<path fill="none" stroke="black" d="M307.672,-2018.15C292.742,-2008.65 273.089,-1996.15 256.273,-1985.45"/>
<polygon fill="black" stroke="black" points="258.093,-1982.46 247.777,-1980.04 254.335,-1988.36 258.093,-1982.46"/>
</g>
<!-- 140466826909936 -->
<g id="node28" class="node"><title>140466826909936</title>
<ellipse fill="lightblue" stroke="black" cx="221" cy="-2178" rx="43.5923" ry="18"/>
<text text-anchor="middle" x="221" y="-2174.3" font-family="Times,serif" font-size="14.00">[10, 100]</text>
</g>
<!-- 140465669089632 -->
<g id="node34" class="node"><title>140465669089632</title>
<polygon fill="orange" stroke="black" points="252,-2124 190,-2124 190,-2088 252,-2088 252,-2124"/>
<text text-anchor="middle" x="221" y="-2102.3" font-family="Times,serif" font-size="14.00">Softplus</text>
</g>
<!-- 140466826909936&#45;&gt;140465669089632 -->
<g id="edge1" class="edge"><title>140466826909936&#45;&gt;140465669089632</title>
<path fill="none" stroke="black" d="M221,-2159.7C221,-2151.98 221,-2142.71 221,-2134.11"/>
<polygon fill="black" stroke="black" points="224.5,-2134.1 221,-2124.1 217.5,-2134.1 224.5,-2134.1"/>
</g>
<!-- 140466826908784 -->
<g id="node29" class="node"><title>140466826908784</title>
<ellipse fill="red" stroke="black" cx="321" cy="-2322" rx="29.795" ry="18"/>
<text text-anchor="middle" x="321" y="-2318.3" font-family="Times,serif" font-size="14.00">[100]</text>
</g>
<!-- 140466826908784&#45;&gt;140465669089864 -->
<g id="edge12" class="edge"><title>140466826908784&#45;&gt;140465669089864</title>
<path fill="none" stroke="black" d="M302.191,-2307.83C288.633,-2298.34 269.982,-2285.29 253.975,-2274.08"/>
<polygon fill="black" stroke="black" points="255.602,-2270.95 245.403,-2268.08 251.588,-2276.68 255.602,-2270.95"/>
</g>
<!-- 140466826910128 -->
<g id="node30" class="node"><title>140466826910128</title>
<ellipse fill="red" stroke="black" cx="399" cy="-1602" rx="43.5923" ry="18"/>
<text text-anchor="middle" x="399" y="-1598.3" font-family="Times,serif" font-size="14.00">[50, 100]</text>
</g>
<!-- 140466826910128&#45;&gt;140465669090792 -->
<g id="edge8" class="edge"><title>140466826910128&#45;&gt;140465669090792</title>
<path fill="none" stroke="black" d="M379.688,-1585.81C368.003,-1576.62 352.863,-1564.71 339.681,-1554.34"/>
<polygon fill="black" stroke="black" points="341.799,-1551.56 331.775,-1548.13 337.472,-1557.06 341.799,-1551.56"/>
</g>
<!-- 140466826910032 -->
<g id="node31" class="node"><title>140466826910032</title>
<ellipse fill="red" stroke="black" cx="200" cy="-1458" rx="27" ry="18"/>
<text text-anchor="middle" x="200" y="-1454.3" font-family="Times,serif" font-size="14.00">[50]</text>
</g>
<!-- 140466826910032&#45;&gt;140466826996688 -->
<g id="edge6" class="edge"><title>140466826910032&#45;&gt;140466826996688</title>
<path fill="none" stroke="black" d="M199.753,-1439.7C199.643,-1431.98 199.51,-1422.71 199.387,-1414.11"/>
<polygon fill="black" stroke="black" points="202.887,-1414.05 199.244,-1404.1 195.888,-1414.15 202.887,-1414.05"/>
</g>
<!-- 140466827113104 -->
<g id="node32" class="node"><title>140466827113104</title>
<ellipse fill="lightblue" stroke="black" cx="221" cy="-1602" rx="43.5923" ry="18"/>
<text text-anchor="middle" x="221" y="-1598.3" font-family="Times,serif" font-size="14.00">[10, 100]</text>
</g>
<!-- 140466827113104&#45;&gt;140465669090792 -->
<g id="edge7" class="edge"><title>140466827113104&#45;&gt;140465669090792</title>
<path fill="none" stroke="black" d="M240.312,-1585.81C251.997,-1576.62 267.137,-1564.71 280.319,-1554.34"/>
<polygon fill="black" stroke="black" points="282.528,-1557.06 288.225,-1548.13 278.201,-1551.56 282.528,-1557.06"/>
</g>
<!-- 140466827113104&#45;&gt;140465669090328 -->
<g id="edge21" class="edge"><title>140466827113104&#45;&gt;140465669090328</title>
<path fill="none" stroke="black" d="M198.989,-1586.33C184.883,-1576.92 166.284,-1564.52 150.269,-1553.85"/>
<polygon fill="black" stroke="black" points="151.945,-1550.76 141.683,-1548.12 148.062,-1556.58 151.945,-1550.76"/>
</g>
<!-- 140466826910512 -->
<g id="node33" class="node"><title>140466826910512</title>
<ellipse fill="red" stroke="black" cx="154" cy="-450" rx="48.1917" ry="18"/>
<text text-anchor="middle" x="154" y="-446.3" font-family="Times,serif" font-size="14.00">[1995, 50]</text>
</g>
<!-- 140466826910512&#45;&gt;140466818237424 -->
<g id="edge14" class="edge"><title>140466826910512&#45;&gt;140466818237424</title>
<path fill="none" stroke="black" d="M154,-431.697C154,-423.983 154,-414.712 154,-406.112"/>
<polygon fill="black" stroke="black" points="157.5,-406.104 154,-396.104 150.5,-406.104 157.5,-406.104"/>
</g>
<!-- 140465669089632&#45;&gt;140466827113392 -->
<g id="edge35" class="edge"><title>140465669089632&#45;&gt;140466827113392</title>
<path fill="none" stroke="black" d="M221,-2087.7C221,-2079.98 221,-2070.71 221,-2062.11"/>
<polygon fill="black" stroke="black" points="224.5,-2062.1 221,-2052.1 217.5,-2062.1 224.5,-2062.1"/>
</g>
<!-- 140465669090096&#45;&gt;140466827113200 -->
<g id="edge50" class="edge"><title>140465669090096&#45;&gt;140466827113200</title>
<path fill="none" stroke="black" d="M221,-1799.7C221,-1791.98 221,-1782.71 221,-1774.11"/>
<polygon fill="black" stroke="black" points="224.5,-1774.1 221,-1764.1 217.5,-1774.1 224.5,-1774.1"/>
</g>
<!-- 140466826997008&#45;&gt;140466827115024 -->
<g id="edge46" class="edge"><title>140466826997008&#45;&gt;140466827115024</title>
<path fill="none" stroke="black" d="M103,-215.697C103,-207.983 103,-198.712 103,-190.112"/>
<polygon fill="black" stroke="black" points="106.5,-190.104 103,-180.104 99.5001,-190.104 106.5,-190.104"/>
</g>
<!-- 140466826996688&#45;&gt;140466827113584 -->
<g id="edge37" class="edge"><title>140466826996688&#45;&gt;140466827113584</title>
<path fill="none" stroke="black" d="M201.051,-1367.87C203.948,-1343.67 209.271,-1299.21 212.721,-1270.39"/>
<polygon fill="black" stroke="black" points="216.229,-1270.53 213.942,-1260.19 209.278,-1269.7 216.229,-1270.53"/>
</g>
<!-- 140465669090792&#45;&gt;140466827113296 -->
<g id="edge34" class="edge"><title>140465669090792&#45;&gt;140466827113296</title>
<path fill="none" stroke="black" d="M310,-1511.7C310,-1503.98 310,-1494.71 310,-1486.11"/>
<polygon fill="black" stroke="black" points="313.5,-1486.1 310,-1476.1 306.5,-1486.1 313.5,-1486.1"/>
</g>
<!-- 140465669089864&#45;&gt;140466826909936 -->
<g id="edge42" class="edge"><title>140465669089864&#45;&gt;140466826909936</title>
<path fill="none" stroke="black" d="M221,-2231.7C221,-2223.98 221,-2214.71 221,-2206.11"/>
<polygon fill="black" stroke="black" points="224.5,-2206.1 221,-2196.1 217.5,-2206.1 224.5,-2206.1"/>
</g>
<!-- 140466818237424&#45;&gt;140466827114160 -->
<g id="edge49" class="edge"><title>140466818237424&#45;&gt;140466827114160</title>
<path fill="none" stroke="black" d="M154,-359.697C154,-351.983 154,-342.712 154,-334.112"/>
<polygon fill="black" stroke="black" points="157.5,-334.104 154,-324.104 150.5,-334.104 157.5,-334.104"/>
</g>
<!-- 140465669090560&#45;&gt;140466827114064 -->
<g id="edge47" class="edge"><title>140465669090560&#45;&gt;140466827114064</title>
<path fill="none" stroke="black" d="M295.506,-1079.7C295.285,-1071.98 295.02,-1062.71 294.775,-1054.11"/>
<polygon fill="black" stroke="black" points="298.273,-1054 294.489,-1044.1 291.276,-1054.2 298.273,-1054"/>
</g>
<!-- 140466818237192&#45;&gt;140466827114928 -->
<g id="edge44" class="edge"><title>140466818237192&#45;&gt;140466827114928</title>
<path fill="none" stroke="black" d="M259,-503.697C259,-495.983 259,-486.712 259,-478.112"/>
<polygon fill="black" stroke="black" points="262.5,-478.104 259,-468.104 255.5,-478.104 262.5,-478.104"/>
</g>
<!-- 140465669089168&#45;&gt;140466827113968 -->
<g id="edge45" class="edge"><title>140465669089168&#45;&gt;140466827113968</title>
<path fill="none" stroke="black" d="M221,-1943.7C221,-1935.98 221,-1926.71 221,-1918.11"/>
<polygon fill="black" stroke="black" points="224.5,-1918.1 221,-1908.1 217.5,-1918.1 224.5,-1918.1"/>
</g>
<!-- 140465669090328&#45;&gt;140466827114736 -->
<g id="edge40" class="edge"><title>140465669090328&#45;&gt;140466827114736</title>
<path fill="none" stroke="black" d="M116,-1511.7C116,-1503.98 116,-1494.71 116,-1486.11"/>
<polygon fill="black" stroke="black" points="119.5,-1486.1 116,-1476.1 112.5,-1486.1 119.5,-1486.1"/>
</g>
<!-- 140466818236960&#45;&gt;140466827113488 -->
<g id="edge36" class="edge"><title>140466818236960&#45;&gt;140466827113488</title>
<path fill="none" stroke="black" d="M259,-647.697C259,-639.983 259,-630.712 259,-622.112"/>
<polygon fill="black" stroke="black" points="262.5,-622.104 259,-612.104 255.5,-622.104 262.5,-622.104"/>
</g>
<!-- 140465669089400&#45;&gt;140466827113104 -->
<g id="edge48" class="edge"><title>140465669089400&#45;&gt;140466827113104</title>
<path fill="none" stroke="black" d="M221,-1655.7C221,-1647.98 221,-1638.71 221,-1630.11"/>
<polygon fill="black" stroke="black" points="224.5,-1630.1 221,-1620.1 217.5,-1630.1 224.5,-1630.1"/>
</g>
<!-- 140466818236496&#45;&gt;140466827114256 -->
<g id="edge51" class="edge"><title>140466818236496&#45;&gt;140466827114256</title>
<path fill="none" stroke="black" d="M293.753,-935.697C293.643,-927.983 293.51,-918.712 293.387,-910.112"/>
<polygon fill="black" stroke="black" points="296.887,-910.053 293.244,-900.104 289.888,-910.153 296.887,-910.053"/>
</g>
<!-- 140466826996816&#45;&gt;140466827114640 -->
<g id="edge38" class="edge"><title>140466826996816&#45;&gt;140466827114640</title>
<path fill="none" stroke="black" d="M310.506,-1367.7C310.285,-1359.98 310.02,-1350.71 309.775,-1342.11"/>
<polygon fill="black" stroke="black" points="313.273,-1342 309.489,-1332.1 306.276,-1342.2 313.273,-1342"/>
</g>
<!-- 140465669091024&#45;&gt;140466827113776 -->
<g id="edge41" class="edge"><title>140465669091024&#45;&gt;140466827113776</title>
<path fill="none" stroke="black" d="M301.753,-1223.7C301.643,-1215.98 301.51,-1206.71 301.387,-1198.11"/>
<polygon fill="black" stroke="black" points="304.887,-1198.05 301.244,-1188.1 297.888,-1198.15 304.887,-1198.05"/>
</g>
<!-- 140466818237656&#45;&gt;140466827113680 -->
<g id="edge39" class="edge"><title>140466818237656&#45;&gt;140466827113680</title>
<path fill="none" stroke="black" d="M103,-71.6966C103,-63.9827 103,-54.7125 103,-46.1124"/>
<polygon fill="black" stroke="black" points="106.5,-46.1043 103,-36.1043 99.5001,-46.1044 106.5,-46.1043"/>
</g>
<!-- 140466818236728&#45;&gt;140466827113872 -->
<g id="edge43" class="edge"><title>140466818236728&#45;&gt;140466827113872</title>
<path fill="none" stroke="black" d="M259,-791.697C259,-783.983 259,-774.712 259,-766.112"/>
<polygon fill="black" stroke="black" points="262.5,-766.104 259,-756.104 255.5,-766.104 262.5,-766.104"/>
</g>
</g>
</svg>
